<svg width="181" height="69" viewBox="0 0 181 69" fill="none" xmlns="http://www.w3.org/2000/svg">
<path fill-rule="evenodd" clip-rule="evenodd" d="M16.39 21.991C16.1176 21.4808 15.4668 21.4899 15.2053 22.0074L6.41553 39.4067C5.54438 41.1311 3.61501 41.7219 2.10616 40.7264C0.597307 39.7308 0.0803568 37.5258 0.951507 35.8014L10.3215 17.2535C12.7161 12.5135 18.677 12.4309 21.1714 17.1032L27.0545 28.1225C27.962 29.8223 27.4919 32.041 26.0047 33.0781C24.5174 34.1152 22.5761 33.578 21.6686 31.8782L16.39 21.991Z" fill="#11C751"/>
<path fill-rule="evenodd" clip-rule="evenodd" d="M23.4816 47.7434C23.754 48.2535 24.4049 48.2445 24.6663 47.727L33.4561 30.3277C34.3273 28.6033 36.2566 28.0124 37.7655 29.008C39.2743 30.0036 39.7913 32.2086 38.9201 33.933L29.5501 52.4808C27.1556 57.2209 21.1947 57.3035 18.7002 52.6312L12.8171 41.6118C11.9097 39.9121 12.3796 37.6934 13.867 36.6563C15.3542 35.6192 17.2956 36.1564 18.203 37.8561L23.4816 47.7434Z" fill="#11C751"/>
<path d="M65.1715 49.588C62.305 49.588 60.541 47.866 59.5855 44.38L53.2278 20.734H58.7403L64.4365 42.616C64.5835 43.162 64.8408 43.456 65.2083 43.456C65.5758 43.456 65.7963 43.162 65.9433 42.616L71.6028 20.734H77.1153L70.7575 44.38C69.802 47.866 68.038 49.588 65.1715 49.588ZM90.0067 49.588C87.1402 49.588 85.3762 47.866 84.4207 44.38L78.0629 20.734H83.5754L89.2717 42.616C89.4187 43.162 89.6759 43.456 90.0434 43.456C90.4109 43.456 90.6314 43.162 90.7784 42.616L96.4379 20.734H101.95L95.5927 44.38C94.6372 47.866 92.8732 49.588 90.0067 49.588ZM100.827 49L107.368 24.724C108.214 21.658 110.419 20.188 112.734 20.188C115.086 20.188 117.291 21.658 118.136 24.724L124.678 49H119.202L117.769 43.204L107.736 43.246L106.303 49H100.827ZM111.962 26.53L109.132 37.744H116.372L113.579 26.53C113.432 25.942 113.212 25.69 112.771 25.69C112.366 25.69 112.109 25.942 111.962 26.53ZM134.277 20.734V43.33H145.817V49H133.653C130.235 49 128.912 46.984 128.912 43.75V20.734H134.277ZM152.021 36.61L146.068 20.734H151.838L156.909 34.93C157.13 35.476 157.24 35.77 157.46 35.77C157.681 35.77 157.791 35.434 158.012 34.93L163.046 20.734H168.853L162.826 36.61C162.201 38.332 161.246 39.55 160.143 40.306V49H154.778V40.348C153.675 39.592 152.683 38.374 152.021 36.61Z" fill="#141414"/>
</svg>
