<svg width="193" height="60" viewBox="0 0 193 60" fill="none" xmlns="http://www.w3.org/2000/svg">
<path fill-rule="evenodd" clip-rule="evenodd" d="M28.39 19.1225C28.1176 18.6789 27.4668 18.6868 27.2053 19.1368L18.4155 34.2666C17.5444 35.7661 15.615 36.2798 14.1062 35.4142C12.5973 34.5484 12.0804 32.6311 12.9515 31.1316L22.3215 15.003C24.7161 10.8812 30.677 10.8094 33.1714 14.8723L39.0545 24.4543C39.962 25.9324 39.4919 27.8617 38.0047 28.7635C36.5174 29.6653 34.5761 29.1982 33.6686 27.7201L28.39 19.1225Z" fill="#11C751"/>
<path fill-rule="evenodd" clip-rule="evenodd" d="M35.4816 41.5161C35.754 41.9597 36.4049 41.9519 36.6663 41.5019L45.4561 26.3721C46.3273 24.8726 48.2566 24.3588 49.7655 25.2245C51.2743 26.0902 51.7913 28.0076 50.9201 29.5071L41.5501 45.6356C39.1556 49.7574 33.1947 49.8293 30.7002 45.7664L24.8171 36.1843C23.9097 34.7063 24.3796 32.777 25.867 31.8752C27.3542 30.9734 29.2956 31.4405 30.203 32.9185L35.4816 41.5161Z" fill="#11C751"/>
<path d="M77.1715 43.1199C74.305 43.1199 72.541 41.6225 71.5855 38.5912L65.2278 18.0295H70.7403L76.4365 37.0573C76.5835 37.5321 76.8408 37.7877 77.2083 37.7877C77.5758 37.7877 77.7963 37.5321 77.9433 37.0573L83.6028 18.0295H89.1153L82.7575 38.5912C81.802 41.6225 80.038 43.1199 77.1715 43.1199ZM102.007 43.1199C99.1402 43.1199 97.3762 41.6225 96.4207 38.5912L90.0629 18.0295H95.5754L101.272 37.0573C101.419 37.5321 101.676 37.7877 102.043 37.7877C102.411 37.7877 102.631 37.5321 102.778 37.0573L108.438 18.0295H113.95L107.593 38.5912C106.637 41.6225 104.873 43.1199 102.007 43.1199ZM112.827 42.6086L119.368 21.499C120.214 18.8329 122.419 17.5547 124.734 17.5547C127.086 17.5547 129.291 18.8329 130.136 21.499L136.678 42.6086H131.202L129.769 37.5686L119.736 37.6051L118.303 42.6086H112.827ZM123.962 23.0695L121.132 32.8208H128.372L125.579 23.0695C125.432 22.5582 125.212 22.339 124.771 22.339C124.366 22.339 124.109 22.5582 123.962 23.0695ZM146.277 18.0295V37.6782H157.817V42.6086H145.653C142.235 42.6086 140.912 40.8556 140.912 38.0434V18.0295H146.277ZM164.021 31.8347L158.068 18.0295H163.838L168.909 30.3738C169.13 30.8486 169.24 31.1043 169.46 31.1043C169.681 31.1043 169.791 30.8121 170.012 30.3738L175.046 18.0295H180.853L174.826 31.8347C174.201 33.3321 173.246 34.3912 172.143 35.0486V42.6086H166.778V35.0851C165.675 34.4277 164.683 33.3686 164.021 31.8347Z" fill="white"/>
</svg>
