<svg width="220" height="69" viewBox="0 0 220 69" fill="none" xmlns="http://www.w3.org/2000/svg">
<g clip-path="url(#clip0_117_820)">
<path fill-rule="evenodd" clip-rule="evenodd" d="M32.4458 21.9912C32.1345 21.481 31.3907 21.4901 31.0919 22.0076L21.0464 39.4069C20.0508 41.1313 17.8458 41.7221 16.1214 40.7266C14.397 39.731 13.8062 37.526 14.8018 35.8016L25.5104 17.2537C28.247 12.5137 35.0595 12.4311 37.9103 17.1034L44.6338 28.1227C45.6709 29.8225 45.1337 32.0412 43.434 33.0783C41.7343 34.1154 39.5156 33.5782 38.4785 31.8784L32.4458 21.9912Z" fill="white"/>
<path fill-rule="evenodd" clip-rule="evenodd" d="M40.5504 47.7434C40.8617 48.2535 41.6055 48.2445 41.9043 47.727L51.9498 30.3277C52.9454 28.6033 55.1504 28.0124 56.8748 29.008C58.5992 30.0036 59.19 32.2086 58.1944 33.933L47.4858 52.4808C44.7492 57.2209 37.9367 57.3035 35.0859 52.6312L28.3624 41.6118C27.3253 39.9121 27.8624 37.6934 29.5622 36.6563C31.2619 35.6192 33.4806 36.1564 34.5177 37.8561L40.5504 47.7434Z" fill="white"/>
<path d="M88.196 49.5885C84.92 49.5885 82.904 47.8665 81.812 44.3805L74.546 20.7345H80.846L87.356 42.6165C87.524 43.1625 87.818 43.4565 88.238 43.4565C88.658 43.4565 88.91 43.1625 89.078 42.6165L95.546 20.7345H101.846L94.58 44.3805C93.488 47.8665 91.472 49.5885 88.196 49.5885ZM116.579 49.5885C113.303 49.5885 111.287 47.8665 110.195 44.3805L102.929 20.7345H109.229L115.739 42.6165C115.907 43.1625 116.201 43.4565 116.621 43.4565C117.041 43.4565 117.293 43.1625 117.461 42.6165L123.929 20.7345H130.229L122.963 44.3805C121.871 47.8665 119.855 49.5885 116.579 49.5885ZM128.945 49.0005L136.421 24.7245C137.387 21.6585 139.907 20.1885 142.553 20.1885C145.241 20.1885 147.761 21.6585 148.727 24.7245L156.203 49.0005H149.945L148.307 43.2045L136.841 43.2465L135.203 49.0005H128.945ZM141.671 26.5305L138.437 37.7445H146.711L143.519 26.5305C143.351 25.9425 143.099 25.6905 142.595 25.6905C142.133 25.6905 141.839 25.9425 141.671 26.5305ZM167.174 20.7345V43.3305H180.362V49.0005H166.46C162.554 49.0005 161.042 46.9845 161.042 43.7505V20.7345H167.174ZM187.453 36.6105L180.649 20.7345H187.243L193.039 34.9305C193.291 35.4765 193.417 35.7705 193.669 35.7705C193.921 35.7705 194.047 35.4345 194.299 34.9305L200.053 20.7345H206.689L199.801 36.6105C199.087 38.3325 197.995 39.5505 196.735 40.3065V49.0005H190.603V40.3485C189.343 39.5925 188.209 38.3745 187.453 36.6105Z" fill="white"/>
</g>
<defs>
<clipPath id="clip0_117_820">
<rect width="220" height="69" fill="white"/>
</clipPath>
</defs>
</svg>
